<?xml version="1.0" encoding="iso-8859-1"?>
<!-- Generator: Adobe Illustrator 17.1.0, SVG Export Plug-In . SVG Version: 6.00 Build 0)  -->
<!DOCTYPE svg PUBLIC "-//W3C//DTD SVG 1.1//EN" "http://www.w3.org/Graphics/SVG/1.1/DTD/svg11.dtd">
<svg version="1.1" id="Capa_1" xmlns="http://www.w3.org/2000/svg" xmlns:xlink="http://www.w3.org/1999/xlink" x="0px" y="0px"
	 viewBox="0 0 476.257 476.257" style="enable-background:new 0 0 476.257 476.257;" xml:space="preserve">
<path d="M473.721,182.408c8.282-24.847-4.351-51.747-28.761-61.24L326.565,75.125c-57.029-22.177-119.843-22.177-176.872,0
	L31.297,121.168c-24.41,9.493-37.043,36.394-28.762,61.24l27.268,81.804v36.571c-8.598,12.71-9.631,26.427-2.934,39.823
	c22.736,45.472,129.584,77.16,211.259,77.16c81.674,0,188.522-31.688,211.259-77.16c6.698-13.396,5.665-27.113-2.934-39.823v-36.571
	L473.721,182.408z M36.734,135.148L155.13,89.105c53.522-20.814,112.478-20.814,165.998,0l118.396,46.043
	c16.947,6.591,25.718,25.266,19.968,42.516l-25.943,77.83h-7.983c-4.143,0-7.5,3.357-7.5,7.5s3.357,7.5,7.5,7.5h5.889v25.165H44.804
	v-25.165H385.4c4.143,0,7.5-3.357,7.5-7.5s-3.357-7.5-7.5-7.5H42.709l-25.944-77.83C11.016,160.414,19.787,141.739,36.734,135.148z
	 M188.289,193.014l4.308,2.154c0.17,19,12.153,32.875,33.047,38.393l6.909,7.679c0.066,0.073,0.139,0.137,0.207,0.207
	c0.045,0.046,0.091,0.092,0.137,0.137c0.134,0.131,0.272,0.257,0.416,0.378c0.04,0.033,0.08,0.065,0.12,0.097
	c0.154,0.124,0.311,0.243,0.473,0.354c0.033,0.022,0.067,0.043,0.1,0.065c0.174,0.115,0.35,0.224,0.532,0.323
	c0.022,0.012,0.046,0.023,0.068,0.035c1.074,0.572,2.279,0.888,3.522,0.888c1.015,0,2.004-0.211,2.919-0.598c0,0,0,0,0,0
	c0.204-0.086,0.402-0.184,0.597-0.287c0.025-0.013,0.051-0.025,0.075-0.039c0.181-0.099,0.356-0.207,0.528-0.321
	c0.035-0.023,0.07-0.044,0.104-0.068c0.162-0.111,0.319-0.229,0.472-0.353c0.04-0.032,0.08-0.064,0.12-0.097
	c0.144-0.121,0.283-0.248,0.418-0.38c0.045-0.044,0.089-0.088,0.132-0.132c0.069-0.071,0.143-0.136,0.21-0.21l6.905-7.678
	c20.894-5.518,32.88-19.394,33.05-38.394l4.308-2.154c3.705-1.852,5.207-6.356,3.354-10.062c-1.852-3.706-6.358-5.209-10.062-3.354
	l-8.452,4.226c-2.541,1.271-4.146,3.867-4.146,6.708v4.227c0,12.654-7.76,20.913-23.033,24.577v-54.782h7.646
	c4.143,0,7.5-3.357,7.5-7.5s-3.357-7.5-7.5-7.5h-7.646v-14.2c0-0.133-0.013-0.263-0.02-0.394
	c6.995-2.934,11.922-9.851,11.922-17.899c0-10.698-8.704-19.402-19.402-19.402c-10.699,0-19.402,8.704-19.402,19.402
	c0,8.048,4.927,14.965,11.922,17.899c-0.007,0.131-0.02,0.261-0.02,0.394v14.2h-7.646c-4.142,0-7.5,3.357-7.5,7.5s3.358,7.5,7.5,7.5
	h7.646v54.782c-15.273-3.664-23.033-11.922-23.033-24.577v-4.227c0-2.841-1.605-5.438-4.146-6.708l-8.452-4.226
	c-3.704-1.854-8.209-0.351-10.063,3.354C183.083,186.658,184.585,191.163,188.289,193.014z M238.129,112.658
	c2.428,0,4.402,1.975,4.402,4.402s-1.975,4.402-4.402,4.402c-2.427,0-4.402-1.975-4.402-4.402S235.701,112.658,238.129,112.658z"/>
<g>
</g>
<g>
</g>
<g>
</g>
<g>
</g>
<g>
</g>
<g>
</g>
<g>
</g>
<g>
</g>
<g>
</g>
<g>
</g>
<g>
</g>
<g>
</g>
<g>
</g>
<g>
</g>
<g>
</g>
</svg>
